PathFileType	4	(X/Y/Z)	Patient4_TMGait_0pt2_01_left_20.trc.trc
DataRate	CameraRate	NumFrames	NumMarkers	Units	OrigDataRate	OrigDataStartFrame	OrigNumFrames
44.164037854890	44.164037854890	4	33	mm	44.164037854890	36	       141
Frame#	Time	Sacral			L.Shoulder			Chest			R.Shoulder			Neck			R.ASIS			L.ASIS			R.Thigh.Superior			R.Thigh.Lateral			R.Thigh.Inferior			R.Patella			L.Thigh.Superior			L.Thigh.Lateral			L.Thigh.Inferior			L.Patella			L.Shank.Superior			L.Shank.Lateral			L.Shank.Inferior			R.Shank.Superior			R.Shank.Lateral			R.Shank.Inferior			R.Heel			R.Midfoot.Superior			R.Midfoot.Lateral			R.Toe			L.Heel			L.Midfoot.Lateral			L.Midfoot.Superior			L.Toe			L.Elbow			L.Wrist			R.Elbow			R.Wrist			
		X1	Y1	Z1	X2	Y2	Z2	X3	Y3	Z3	X4	Y4	Z4	X5	Y5	Z5	X6	Y6	Z6	X7	Y7	Z7	X8	Y8	Z8	X9	Y9	Z9	X10	Y10	Z10	X11	Y11	Z11	X12	Y12	Z12	X13	Y13	Z13	X14	Y14	Z14	X15	Y15	Z15	X16	Y16	Z16	X17	Y17	Z17	X18	Y18	Z18	X19	Y19	Z19	X20	Y20	Z20	X21	Y21	Z21	X22	Y22	Z22	X23	Y23	Z23	X24	Y24	Z24	X25	Y25	Z25	X26	Y26	Z26	X27	Y27	Z27	X28	Y28	Z28	X29	Y29	Z29	X30	Y30	Z30	X31	Y31	Z31	X32	Y32	Z32	X33	Y33	Z33	

36	46.802500000000	701.689514205611	1007.648185334096	551.920130523859	834.901320231621	1421.006599308134	324.197645055173	980.914738687717	1348.115858416609	446.294769782743	958.851691385525	1429.131583238085	633.221885072951	868.524499289933	1485.433768691601	476.327337273399	945.055247535051	922.917091568668	614.197778644865	875.583032117158	955.693219575735	351.179478619245	931.934569662138	709.523834993233	584.845173003721	837.416448038424	615.777888382280	660.500826219041	883.342118537557	550.026237540696	570.665390102883	860.430262037919	457.897513174899	580.207027846943	954.183498905482	764.750853566388	390.135337728460	890.518157938953	633.493830551442	323.354659835985	986.898884475089	569.895048640267	385.176583086007	998.295451076660	497.705754939652	389.641618594156	973.474805496903	423.504668670138	378.010950651437	890.931627552677	309.639565150364	315.752034104715	941.152719451737	195.476172813975	382.381875736866	801.527691971138	383.964449876422	597.764706533603	708.759194775118	311.795038691908	676.392714425710	705.711443919648	208.124466005049	614.390443159107	521.865861029742	80.045084057828	611.744379626924	702.692758063740	102.400887166157	627.874114050428	609.901397573699	56.175353218974	675.218307869974	812.335584572746	36.507409290320	644.051830968224	811.686769795247	39.402700289122	404.541534576001	892.487937054810	36.719757661245	330.928216310018	974.489321672705	96.435497069167	365.236746135147	1103.731819975476	42.152914631182	346.911209561294	683.403998028206	1096.770564134384	262.040756060353	635.162489100200	842.395061259769	307.690658290083	1176.175757269449	1163.750733276281	674.807814590295	1338.467074631168	1266.266372137219	508.952732171256	
37	46.825142857143	703.453409083801	1008.452862559331	545.876439232921	838.340721951074	1421.491970763280	319.055022636508	983.405601228252	1348.681892813620	442.353667096992	959.832747694447	1429.889936090259	629.037835309706	870.407454455013	1486.045653154398	471.509866677927	946.202951821593	923.382410840523	610.108633923847	878.758172706581	956.032988632196	346.591891260062	931.915881459969	709.814090521904	582.005505520126	836.322840253485	617.163680435640	657.882368071590	882.518006717753	550.405657079421	568.913814228065	858.976071845031	458.425936687966	578.938538849798	956.152313599443	764.400322290500	386.548970928863	892.030759226363	633.118879334131	320.167138201073	987.911380223667	569.315051716407	382.664920938689	999.024119647683	496.797094064105	387.527452463415	973.299791020281	422.577013181498	376.372838514561	889.673910354952	309.292992742063	314.563977311963	938.223142413933	195.004161018663	381.950307849531	799.652118327054	385.001629840152	596.589862101268	706.097612243048	313.869141698190	675.161422660119	702.788840950063	209.690681047645	613.835355257508	518.289695333411	83.061355501301	611.328352381345	699.322007998111	102.982963328552	627.723919081761	605.957545764816	58.024427428206	674.890510779737	807.854952575444	36.440812182645	644.003545813042	807.313665474149	39.429866410915	404.528928055262	888.135502603604	36.818131545356	330.984777178068	970.109196305563	96.519356199891	365.353192651492	1099.394944194571	42.070756285381	347.006087535546	689.231973586279	1096.537766349270	253.975017723561	642.762619689463	841.489898707216	297.752284788535	1176.504870526979	1163.736190499316	672.405674552685	1343.679548583775	1261.347146983724	507.700375079305	
38	46.847785714286	705.087788502605	1009.145103975941	539.907463948555	841.670907817797	1421.950261060281	314.108951462757	985.724477052369	1349.209073109472	438.650947141085	960.594056364773	1430.594058282836	625.080457279573	872.172249662052	1486.618351620608	466.913705922373	947.229963787670	923.789501766196	606.063012809609	881.786470100661	956.328174993587	342.053178868742	931.989206188863	710.118126616754	579.090208821351	835.477482995127	618.431802883205	655.148360137264	882.015082455109	550.741968368261	567.025881233381	857.938915666899	458.798399849809	577.568688992370	957.915717035564	763.933525123629	382.820594961104	893.182957639800	632.678684745076	316.957592854404	988.558146063263	568.636581426230	380.060814844737	999.329041840570	495.845308738252	385.317689512379	972.755930425342	421.623366643602	374.653685815547	888.098756240592	308.864742896638	313.366960169710	935.137919284157	194.532451342689	381.467296311034	798.079501138403	385.916904131678	595.285330569333	703.702759314572	315.918389727379	673.806330293806	700.048761691039	211.231772247743	613.202843173997	514.781370988140	86.160507718992	610.834216762922	696.049760897255	103.562822982051	627.548705267374	602.060815622259	59.941368494604	674.532928421710	803.383021268592	36.408070933474	643.951408142359	802.911718495688	39.454975848096	404.529606619690	883.750083966887	36.881402510926	331.045104620647	965.692966977664	96.585728775361	365.433057264735	1095.015812118871	42.001260864335	347.083720690657	695.152830349383	1096.220662522223	245.943055302350	650.900810938291	840.441348606915	287.753370470138	1176.087297133086	1163.040976217776	670.491041326807	1349.085764378437	1254.698544964984	507.534172790545	
39	46.870428571429	706.604570327884	1009.718061896600	534.007069606448	844.864399349011	1422.406390951506	309.374372408788	987.845258635755	1349.722664107537	435.193148220706	961.111530777653	1431.237891807601	621.366420081545	873.795580344318	1487.161718361242	462.564549611750	948.160542763876	924.160022062240	602.053526698471	884.693126530177	956.588080651984	337.559841888943	932.243223260946	710.443335217481	576.111635331628	834.984026833252	619.556771850351	652.294523126657	881.977494822409	551.022978035427	565.006905865437	857.478298319804	458.973344660164	576.118896340559	959.533873894669	763.371524274304	378.980872848945	894.068948941893	632.185408758703	313.740799001246	988.919218164148	567.873547019277	377.400767353596	999.293912763454	494.860910939612	383.056066569405	971.920308112388	420.649607980117	372.887649680411	886.280342701794	308.373971823337	312.162665794226	931.925900511185	194.057541250327	380.955374446711	796.946114777613	386.691451644778	593.873950426471	701.672688639818	317.952028285098	672.336463148205	697.580677169816	212.750001433150	612.512591561799	511.384707719796	89.403447638841	610.281511777622	692.922761138219	104.132760563594	627.361188400568	598.241631909292	61.947898629666	674.155828934064	798.941503839335	36.407647583351	643.896418367544	798.473323452757	39.482558139637	404.541915981949	879.321442160738	36.913626071742	331.104951691804	961.246681589371	96.618872135218	365.480411367703	1090.593340380678	41.905781044128	347.135419329309	701.139085448943	1095.846217900870	237.978932434051	659.601422800791	839.286078269349	277.730286616663	1174.750876896222	1161.515329070249	669.027132366186	1354.429340687396	1245.981773175586	508.522919381297	
